<svg width="16" height="20" viewBox="0 0 16 20" fill="none" xmlns="http://www.w3.org/2000/svg">
<path d="M6.80005 8.20002C6.80005 8.04089 6.86326 7.88828 6.97578 7.77576C7.08831 7.66324 7.24092 7.60002 7.40005 7.60002H11.6C11.7592 7.60002 11.9118 7.66324 12.0243 7.77576C12.1368 7.88828 12.2 8.04089 12.2 8.20002C12.2 8.35915 12.1368 8.51177 12.0243 8.62429C11.9118 8.73681 11.7592 8.80002 11.6 8.80002H7.40005C7.24092 8.80002 7.08831 8.73681 6.97578 8.62429C6.86326 8.51177 6.80005 8.35915 6.80005 8.20002ZM6.80005 11.8C6.80005 11.6409 6.86326 11.4883 6.97578 11.3758C7.08831 11.2632 7.24092 11.2 7.40005 11.2H11.6C11.7592 11.2 11.9118 11.2632 12.0243 11.3758C12.1368 11.4883 12.2 11.6409 12.2 11.8C12.2 11.9592 12.1368 12.1118 12.0243 12.2243C11.9118 12.3368 11.7592 12.4 11.6 12.4H7.40005C7.24092 12.4 7.08831 12.3368 6.97578 12.2243C6.86326 12.1118 6.80005 11.9592 6.80005 11.8ZM6.80005 15.4C6.80005 15.2409 6.86326 15.0883 6.97578 14.9758C7.08831 14.8632 7.24092 14.8 7.40005 14.8H11.6C11.7592 14.8 11.9118 14.8632 12.0243 14.9758C12.1368 15.0883 12.2 15.2409 12.2 15.4C12.2 15.5592 12.1368 15.7118 12.0243 15.8243C11.9118 15.9368 11.7592 16 11.6 16H7.40005C7.24092 16 7.08831 15.9368 6.97578 15.8243C6.86326 15.7118 6.80005 15.5592 6.80005 15.4ZM5.60005 8.20002C5.60005 8.43872 5.50523 8.66764 5.33644 8.83642C5.16766 9.0052 4.93874 9.10003 4.70005 9.10003C4.46135 9.10003 4.23244 9.0052 4.06365 8.83642C3.89487 8.66764 3.80005 8.43872 3.80005 8.20002C3.80005 7.96133 3.89487 7.73241 4.06365 7.56363C4.23244 7.39485 4.46135 7.30002 4.70005 7.30002C4.93874 7.30002 5.16766 7.39485 5.33644 7.56363C5.50523 7.73241 5.60005 7.96133 5.60005 8.20002ZM5.60005 11.8C5.60005 12.0387 5.50523 12.2676 5.33644 12.4364C5.16766 12.6052 4.93874 12.7 4.70005 12.7C4.46135 12.7 4.23244 12.6052 4.06365 12.4364C3.89487 12.2676 3.80005 12.0387 3.80005 11.8C3.80005 11.5613 3.89487 11.3324 4.06365 11.1636C4.23244 10.9948 4.46135 10.9 4.70005 10.9C4.93874 10.9 5.16766 10.9948 5.33644 11.1636C5.50523 11.3324 5.60005 11.5613 5.60005 11.8ZM4.70005 16.3C4.93874 16.3 5.16766 16.2052 5.33644 16.0364C5.50523 15.8676 5.60005 15.6387 5.60005 15.4C5.60005 15.1613 5.50523 14.9324 5.33644 14.7636C5.16766 14.5948 4.93874 14.5 4.70005 14.5C4.46135 14.5 4.23244 14.5948 4.06365 14.7636C3.89487 14.9324 3.80005 15.1613 3.80005 15.4C3.80005 15.6387 3.89487 15.8676 4.06365 16.0364C4.23244 16.2052 4.46135 16.3 4.70005 16.3ZM4.50205 1.60002C4.62618 1.24893 4.85615 0.944979 5.16026 0.730058C5.46437 0.515138 5.82766 0.399829 6.20005 0.400025H9.80005C10.1724 0.399829 10.5357 0.515138 10.8398 0.730058C11.1439 0.944979 11.3739 1.24893 11.498 1.60002H13.4C13.8774 1.60002 14.3353 1.78967 14.6728 2.12723C15.0104 2.4648 15.2 2.92264 15.2 3.40002V17.8C15.2 18.2774 15.0104 18.7353 14.6728 19.0728C14.3353 19.4104 13.8774 19.6 13.4 19.6H2.60005C2.12266 19.6 1.66482 19.4104 1.32726 19.0728C0.989691 18.7353 0.800049 18.2774 0.800049 17.8V3.40002C0.800049 2.92264 0.989691 2.4648 1.32726 2.12723C1.66482 1.78967 2.12266 1.60002 2.60005 1.60002H4.50205ZM6.20005 1.60002C6.04092 1.60002 5.88831 1.66324 5.77578 1.77576C5.66326 1.88828 5.60005 2.04089 5.60005 2.20002C5.60005 2.35915 5.66326 2.51177 5.77578 2.62429C5.88831 2.73681 6.04092 2.80002 6.20005 2.80002H9.80005C9.95918 2.80002 10.1118 2.73681 10.2243 2.62429C10.3368 2.51177 10.4 2.35915 10.4 2.20002C10.4 2.04089 10.3368 1.88828 10.2243 1.77576C10.1118 1.66324 9.95918 1.60002 9.80005 1.60002H6.20005ZM4.50205 2.80002H2.60005C2.44092 2.80002 2.28831 2.86324 2.17578 2.97576C2.06326 3.08828 2.00005 3.24089 2.00005 3.40002V17.8C2.00005 17.9592 2.06326 18.1118 2.17578 18.2243C2.28831 18.3368 2.44092 18.4 2.60005 18.4H13.4C13.5592 18.4 13.7118 18.3368 13.8243 18.2243C13.9368 18.1118 14 17.9592 14 17.8V3.40002C14 3.24089 13.9368 3.08828 13.8243 2.97576C13.7118 2.86324 13.5592 2.80002 13.4 2.80002H11.498C11.3739 3.15112 11.1439 3.45507 10.8398 3.66999C10.5357 3.88491 10.1724 4.00022 9.80005 4.00002H6.20005C5.82766 4.00022 5.46437 3.88491 5.16026 3.66999C4.85615 3.45507 4.62618 3.15112 4.50205 2.80002Z" fill="black"/>
</svg>
