<svg
  width="9"
  height="7"
  viewBox="0 0 9 7"
  fill="none"
  xmlns="http://www.w3.org/2000/svg"
>
<path
    d="M7.55162 0.477451C7.6028 0.425225 7.66389 0.383736 7.73131 0.355412C7.79873 0.327089 7.87112 0.3125 7.94424 0.3125C8.01737 0.3125 8.08976 0.327089 8.15718 0.355412C8.22459 0.383736 8.28568 0.425225 8.33687 0.477451C8.55137 0.694201 8.55437 1.04445 8.34437 1.26495L3.90962 6.50745C3.85927 6.56274 3.79817 6.60718 3.73005 6.63804C3.66194 6.66891 3.58824 6.68555 3.51347 6.68696C3.43871 6.68836 3.36444 6.6745 3.29521 6.64621C3.22599 6.61792 3.16326 6.57581 3.11087 6.52245L0.412369 3.78795C0.308297 3.68182 0.25 3.5391 0.25 3.39045C0.25 3.2418 0.308297 3.09909 0.412369 2.99295C0.463553 2.94073 0.524643 2.89924 0.59206 2.87091C0.659478 2.84259 0.731868 2.828 0.804994 2.828C0.878119 2.828 0.95051 2.84259 1.01793 2.87091C1.08535 2.89924 1.14643 2.94073 1.19762 2.99295L3.48662 5.3127L7.53662 0.493951C7.54128 0.488154 7.54629 0.482644 7.55162 0.477451Z"
    fill="white"
  />
</svg>
