<svg width="65" height="64" viewBox="0 0 65 64" fill="none" xmlns="http://www.w3.org/2000/svg">
<path d="M42.3713 34.8278L31.2269 36.781C31.2269 36.781 30.8705 32.1226 34.1938 26.1559L43.4591 25.4801C43.4591 25.4801 38.2568 30.9688 42.3713 34.8278ZM38.8666 48.2797H30.3286C30.3286 48.2797 27.5678 45.2407 27.9778 38.4334L43.181 35.9383C43.181 35.9383 42.6041 41.6372 38.8666 48.2797ZM27.1454 37.2693L21.7124 35.073L27.2114 20.6775H27.4112L27.1454 37.2693ZM34.4987 15.7203H38.9223C38.9223 15.7203 37.9807 20.0964 38.4669 24.7487L29.4633 25.991C29.4633 25.991 31.5484 19.6803 34.4987 15.7203ZM32.9968 0C15.3233 0 0.997864 14.3275 0.997864 32.001C0.997864 49.6725 15.3233 64 32.9968 64C50.6703 64 64.9957 49.6725 64.9957 32.001C64.9957 14.3275 50.6703 0 32.9968 0Z" fill="#0F1322"/>
</svg>
