<svg width="24" height="24" viewBox="0 0 24 24" fill="none" xmlns="http://www.w3.org/2000/svg">
<path d="M9.33333 12.3333H1.33333C1.24493 12.3333 1.16014 12.2982 1.09763 12.2357C1.03512 12.1732 1 12.0884 1 12V1.33333C1 1.24493 1.03512 1.16014 1.09763 1.09763C1.16014 1.03512 1.24493 1 1.33333 1H9.33333C9.42174 1 9.50652 1.03512 9.56904 1.09763C9.63155 1.16014 9.66667 1.24493 9.66667 1.33333V12C9.66667 12.0884 9.63155 12.1732 9.56904 12.2357C9.50652 12.2982 9.42174 12.3333 9.33333 12.3333ZM1.09763 22.9024C1.03512 22.8399 1 22.7551 1 22.6667V17.3333C1 17.2449 1.03512 17.1601 1.09763 17.0976C1.16014 17.0351 1.24493 17 1.33333 17H9.33333C9.42174 17 9.50652 17.0351 9.56904 17.0976C9.63155 17.1601 9.66667 17.2449 9.66667 17.3333V22.6667C9.66667 22.7551 9.63155 22.8399 9.56904 22.9024C9.50653 22.9649 9.42174 23 9.33333 23H1.33333C1.24493 23 1.16014 22.9649 1.09763 22.9024ZM14.431 22.9024C14.3685 22.8399 14.3333 22.7551 14.3333 22.6667V13.3333C14.3333 13.2449 14.3685 13.1601 14.431 13.0976C14.4935 13.0351 14.5783 13 14.6667 13H22.6667C22.7551 13 22.8399 13.0351 22.9024 13.0976C22.9649 13.1601 23 13.2449 23 13.3333V22.6667C23 22.7551 22.9649 22.8399 22.9024 22.9024C22.8399 22.9649 22.7551 23 22.6667 23H14.6667C14.5783 23 14.4935 22.9649 14.431 22.9024ZM22.6667 8.33333H14.6667C14.5783 8.33333 14.4935 8.29821 14.431 8.2357C14.3685 8.17319 14.3333 8.0884 14.3333 8V1.33333C14.3333 1.24493 14.3685 1.16014 14.431 1.09763C14.4935 1.03512 14.5783 1 14.6667 1H22.6667C22.7551 1 22.8399 1.03512 22.9024 1.09763C22.9649 1.16014 23 1.24493 23 1.33333V8C23 8.08841 22.9649 8.17319 22.9024 8.2357C22.8399 8.29821 22.7551 8.33333 22.6667 8.33333Z" stroke="#CCCCCC" stroke-width="2"/>
</svg>
