<svg width="30" height="24" viewBox="0 0 30 24" fill="none" xmlns="http://www.w3.org/2000/svg">
<path d="M21.6667 8H24.3333V5.33333H21.6667V8ZM21.6667 13.3333H24.3333V10.6667H21.6667V13.3333ZM21.6667 18.6667H24.3333V16H21.6667V18.6667ZM21.6667 24V21.3333H27V2.66667H15V4.53333L12.3333 2.6C12.3333 1.88889 12.5947 1.27778 13.1173 0.766667C13.6391 0.255556 14.2667 0 15 0H27C27.7333 0 28.3613 0.260889 28.884 0.782667C29.4058 1.30533 29.6667 1.93333 29.6667 2.66667V21.3333C29.6667 22.0667 29.4058 22.6947 28.884 23.2173C28.3613 23.7391 27.7333 24 27 24H21.6667ZM0.333336 22.6667V12.0333C0.333336 11.5889 0.433336 11.1778 0.633336 10.8C0.833336 10.4222 1.11111 10.1111 1.46667 9.86667L8.13334 5.1C8.6 4.76667 9.11111 4.6 9.66667 4.6C10.2222 4.6 10.7333 4.76667 11.2 5.1L17.8667 9.86667C18.2222 10.1111 18.5 10.4222 18.7 10.8C18.9 11.1778 19 11.5889 19 12.0333V22.6667C19 23.0444 18.8724 23.3609 18.6173 23.616C18.3613 23.872 18.0444 24 17.6667 24H11V17.3333H8.33334V24H1.66667C1.28889 24 0.972447 23.872 0.717336 23.616C0.461336 23.3609 0.333336 23.0444 0.333336 22.6667ZM3 21.3333H5.66667V14.6667H13.6667V21.3333H16.3333V12L9.66667 7.26667L3 12V21.3333ZM13.6667 21.3333V14.6667H5.66667V21.3333V14.6667H13.6667V21.3333Z" fill="#CCCCCC"/>
</svg>
