<svg width="26" height="27" viewBox="0 0 26 27" fill="none" xmlns="http://www.w3.org/2000/svg">
<path d="M10 0C6.145 0 3 3.145 3 7C3 9.41 4.23 11.55 6.094 12.813C2.527 14.343 0 17.883 0 22H2C2 17.57 5.57 14 10 14C12.145 14 14.063 14.879 15.5 16.25L10.781 20.969L10.719 21.281L10.031 24.813L9.719 26.281L11.188 25.969L14.718 25.281L15.031 25.219L25.125 15.125C26.285 13.965 26.285 12.035 25.125 10.875C24.5652 10.3197 23.8103 10.0056 23.0218 9.99978C22.2333 9.99399 21.4739 10.297 20.906 10.844L16.938 14.813C16.0565 13.9686 15.0292 13.291 13.906 12.813C14.8575 12.1707 15.637 11.3049 16.1764 10.2915C16.7158 9.27815 16.9986 8.148 17 7C17 3.145 13.855 0 10 0ZM10 2C12.773 2 15 4.227 15 7C15 9.773 12.773 12 10 12C7.227 12 5 9.773 5 7C5 4.227 7.227 2 10 2ZM23 12C23.254 12 23.52 12.082 23.719 12.281C23.8134 12.3721 23.8885 12.4813 23.9398 12.6021C23.9911 12.7229 24.0175 12.8528 24.0175 12.984C24.0175 13.1152 23.9911 13.2451 23.9398 13.3659C23.8885 13.4867 23.8134 13.5959 23.719 13.687L14.031 23.375L12.25 23.75L12.625 21.969L22.313 12.281C22.4022 12.1897 22.5092 12.1177 22.6274 12.0693C22.7455 12.021 22.8724 11.9974 23 12Z" fill="white"/>
</svg>
