<svg width="56" height="52" viewBox="0 0 56 52" fill="none" xmlns="http://www.w3.org/2000/svg">
<path d="M33.5037 3.53605C31.1151 -0.797662 24.8865 -0.797662 22.498 3.53605L1.37111 41.8172C-0.939752 46.0069 2.08882 51.1383 6.87511 51.1383H49.1197C53.9037 51.1383 56.9368 46.0069 54.6237 41.8172L33.5037 3.53148V3.53605ZM30.2854 39.7143C30.2854 40.3205 30.0446 40.9019 29.6159 41.3306C29.1873 41.7592 28.6059 42.0001 27.9997 42.0001C27.3935 42.0001 26.8121 41.7592 26.3834 41.3306C25.9548 40.9019 25.714 40.3205 25.714 39.7143C25.714 39.1081 25.9548 38.5267 26.3834 38.0981C26.8121 37.6694 27.3935 37.4286 27.9997 37.4286C28.6059 37.4286 29.1873 37.6694 29.6159 38.0981C30.0446 38.5267 30.2854 39.1081 30.2854 39.7143ZM26.2854 32.2858V17.4286C26.2854 16.974 26.466 16.5379 26.7875 16.2164C27.109 15.895 27.545 15.7143 27.9997 15.7143C28.4543 15.7143 28.8904 15.895 29.2119 16.2164C29.5334 16.5379 29.714 16.974 29.714 17.4286V32.2858C29.714 32.7404 29.5334 33.1765 29.2119 33.498C28.8904 33.8194 28.4543 34.0001 27.9997 34.0001C27.545 34.0001 27.109 33.8194 26.7875 33.498C26.466 33.1765 26.2854 32.7404 26.2854 32.2858Z" fill="#DB2B2B"/>
</svg>
